<svg viewBox="0 0 512 512" xmlns="http://www.w3.org/2000/svg">
  <defs>
    <radialGradient id="bg" cx="50%" cy="40%">
      <stop offset="0%" stop-color="#2D3561"/>
      <stop offset="60%" stop-color="#0F1729"/>
      <stop offset="100%" stop-color="#070C1A"/>
    </radialGradient>
    <radialGradient id="moon" cx="35%" cy="35%">
      <stop offset="0%" stop-color="#FFF8E0"/>
      <stop offset="60%" stop-color="#FFE9B8"/>
      <stop offset="100%" stop-color="#F0C870"/>
    </radialGradient>
    <radialGradient id="moonGlow" cx="50%" cy="50%">
      <stop offset="0%" stop-color="#FFD584" stop-opacity="0.35"/>
      <stop offset="100%" stop-color="#FFD584" stop-opacity="0"/>
    </radialGradient>
    <symbol id="sparkle" viewBox="-10 -10 20 20">
      <path d="M 0 -10 L 2 -2 L 10 0 L 2 2 L 0 10 L -2 2 L -10 0 L -2 -2 Z" fill="currentColor"/>
    </symbol>
  </defs>
  
  <rect width="512" height="512" rx="100" fill="url(#bg)"/>
  
  <circle cx="256" cy="256" r="180" fill="url(#moonGlow)"/>
  
  <circle cx="256" cy="256" r="110" fill="url(#moon)"/>
  <circle cx="295" cy="232" r="100" fill="url(#bg)"/>
  
  <g color="#FFD584">
    <use href="#sparkle" x="110" y="120" width="32" height="32"/>
    <use href="#sparkle" x="420" y="380" width="26" height="26"/>
    <use href="#sparkle" x="90" y="400" width="20" height="20"/>
  </g>
  <g color="#FFB97A">
    <use href="#sparkle" x="420" y="150" width="18" height="18"/>
    <use href="#sparkle" x="70" y="260" width="14" height="14"/>
  </g>
  
  <g fill="#FFF4DA">
    <circle cx="140" cy="180" r="3"/>
    <circle cx="380" cy="200" r="2.5"/>
    <circle cx="120" cy="340" r="2.5"/>
    <circle cx="400" cy="320" r="3"/>
    <circle cx="160" cy="80" r="2"/>
    <circle cx="350" cy="100" r="2"/>
    <circle cx="200" cy="430" r="2"/>
    <circle cx="320" cy="420" r="2.5"/>
    <circle cx="60" cy="180" r="1.5"/>
    <circle cx="440" cy="280" r="2"/>
  </g>
</svg>
